<svg width="263" height="105" viewBox="0 0 263 105" fill="none" xmlns="http://www.w3.org/2000/svg">
<g clip-path="url(#clip0_24_2)">
<path d="M62.4278 0C52.1569 0 42.3069 4.23518 35.0444 11.7739L11.3426 36.3769C4.08004 43.9156 0 54.1401 0 64.8014C0 87.0027 17.3382 105 38.7261 105C48.9969 105 58.8469 100.765 66.1094 93.226L82.5041 76.208C82.5045 76.2083 82.5041 76.2076 82.5041 76.208L130.273 26.6231C133.741 23.0227 138.446 21 143.351 21C151.563 21 158.526 26.5559 160.939 34.2442L176.015 18.5954C169.138 7.41419 157.078 0 143.351 0C133.08 0 123.23 4.23518 115.967 11.7739L51.8043 78.3769C48.3357 81.9774 43.6314 84 38.7261 84C28.5114 84 20.2308 75.4047 20.2308 64.8014C20.2308 59.7096 22.1794 54.8264 25.6479 51.226L49.3496 26.6231C52.8182 23.0227 57.5225 21 62.4278 21C70.6405 21 77.6025 26.5562 80.0164 34.2447L95.0924 18.5957C88.2149 7.4144 76.1557 0 62.4278 0Z" fill="#704EF8"/>
<path d="M132.727 78.3769C129.259 81.9774 124.554 84 119.649 84C111.438 84 104.476 78.4455 102.061 70.7584L86.9862 86.407C93.864 97.5867 105.923 105 119.649 105C129.92 105 139.77 100.765 147.032 93.226L211.196 26.6231C214.664 23.0227 219.369 21 224.274 21C234.489 21 242.769 29.5954 242.769 40.1986C242.769 45.2904 240.821 50.1736 237.352 53.774L213.65 78.3769C210.182 81.9774 205.477 84 200.572 84C192.36 84 185.398 78.4444 182.984 70.7567L167.909 86.4055C174.786 97.5863 186.845 105 200.572 105C210.843 105 220.693 100.765 227.956 93.226L251.657 68.6231C258.92 61.0844 263 50.8599 263 40.1986C263 17.9975 245.662 0 224.274 0C214.003 0 204.153 4.23518 196.891 11.7739L132.727 78.3769Z" fill="#704EF8"/>
</g>
<defs>
<clipPath id="clip0_24_2">
<rect width="263" height="105" fill="white"/>
</clipPath>
</defs>
</svg>
